<svg width="93" height="44" viewBox="0 0 93 44" fill="none" xmlns="http://www.w3.org/2000/svg">
<path d="M13.154 36.599C12.1313 36.599 10.9513 36.5007 9.614 36.304C8.27667 36.1073 6.959 35.7533 5.661 35.242C4.40233 34.7307 3.32067 34.0227 2.416 33.118C1.55067 32.2133 1.059 31.0333 0.941 29.578C0.862333 28.398 1.177 27.2573 1.885 26.156C2.63233 25.0547 3.596 24.0517 4.776 23.147C5.956 22.203 7.195 21.3967 8.493 20.728C9.791 20.02 10.9513 19.489 11.974 19.135L13.98 18.427C13.3507 18.309 12.6623 18.1123 11.915 17.837C11.1677 17.5223 10.5187 17.1093 9.968 16.598C9.41733 16.0867 9.12233 15.477 9.083 14.769C9.00433 13.8643 9.29933 12.999 9.968 12.173C10.6367 11.3077 11.4823 10.521 12.505 9.813C13.5277 9.105 14.57 8.515 15.632 8.043C16.7333 7.53167 17.6577 7.158 18.405 6.922C19.1917 6.64666 20.3127 6.37133 21.768 6.096C23.2233 5.82066 24.6393 5.683 26.016 5.683C26.7633 5.683 27.4517 5.742 28.081 5.86C28.7497 5.93867 29.2807 6.11566 29.674 6.391C30.1067 5.76167 30.5393 5.152 30.972 4.562C31.444 3.93267 31.9947 3.36233 32.624 2.851C33.1747 2.851 33.7843 3.00833 34.453 3.323C35.161 3.63766 35.5347 4.16867 35.574 4.916C34.8267 4.87667 34.1973 5.17167 33.686 5.801C33.214 6.43033 32.742 7.02033 32.27 7.571L31.857 8.043C32.1323 8.43633 32.3487 8.869 32.506 9.341C32.7027 9.813 32.801 10.285 32.801 10.757C32.801 11.0717 32.7223 11.465 32.565 11.937C32.4077 12.409 32.1323 12.6843 31.739 12.763C31.6997 12.3697 31.6997 11.996 31.739 11.642C31.7783 11.4847 31.798 11.347 31.798 11.229C31.8373 11.111 31.857 10.9733 31.857 10.816C31.8177 10.6587 31.739 10.3833 31.621 9.99C31.503 9.55733 31.3063 9.341 31.031 9.341C30.8737 9.341 30.6573 9.577 30.382 10.049C30.1067 10.4817 29.8313 11.0127 29.556 11.642C29.2807 12.232 29.0447 12.8023 28.848 13.353C28.6907 13.9037 28.612 14.297 28.612 14.533C28.6907 14.8477 28.966 15.1427 29.438 15.418L28.966 15.89C28.376 15.772 27.8057 15.477 27.255 15.005C26.7437 14.4937 26.488 13.9627 26.488 13.412C26.488 12.7827 26.6257 12.1533 26.901 11.524C27.2157 10.8553 27.5107 10.2653 27.786 9.754C28.1007 9.20333 28.2383 8.79033 28.199 8.515C28.199 8.279 28.022 8.14133 27.668 8.102C27.3533 8.06267 27.0977 8.043 26.901 8.043C26.0357 8.043 24.954 8.22 23.656 8.574C22.358 8.88867 21.001 9.341 19.585 9.931C18.2083 10.521 16.9103 11.17 15.691 11.878C14.511 12.586 13.567 13.3333 12.859 14.12C12.151 14.9067 11.8167 15.654 11.856 16.362C11.8953 16.716 12.1313 16.952 12.564 17.07C12.9967 17.188 13.4687 17.2667 13.98 17.306C14.5307 17.306 14.9043 17.306 15.101 17.306H16.989C17.4217 17.1487 17.9133 17.07 18.464 17.07H19.408C19.5653 17.07 19.7227 17.07 19.88 17.07C20.0373 17.07 20.1947 17.0503 20.352 17.011C20.5093 16.9717 20.6667 16.9323 20.824 16.893C20.9813 16.8537 21.1387 16.834 21.296 16.834C22.1613 16.834 22.9087 17.188 23.538 17.896C24.2067 18.604 24.6 19.312 24.718 20.02L24.659 20.138V20.433C24.187 20.197 23.7937 20.0593 23.479 20.02C23.2037 19.9413 22.9283 19.902 22.653 19.902C22.3777 19.902 22.0827 19.9217 21.768 19.961C21.4533 19.961 21.06 19.961 20.588 19.961C20.0373 19.961 19.4867 20.0003 18.936 20.079C18.3853 20.1577 17.8347 20.2363 17.284 20.315C15.3173 20.7083 13.5277 21.2393 11.915 21.908C10.3023 22.5767 8.729 23.3633 7.195 24.268C6.487 24.6613 5.79867 25.1137 5.13 25.625C4.50067 26.1363 3.98933 26.7263 3.596 27.395C3.124 28.1423 2.888 29.0077 2.888 29.991C2.888 31.3283 3.32067 32.3313 4.186 33C5.05133 33.6687 6.11333 34.1013 7.372 34.298C8.63067 34.534 9.86967 34.652 11.089 34.652C11.679 34.652 12.2493 34.593 12.8 34.475C13.39 34.3963 13.9603 34.3177 14.511 34.239C14.6683 34.1997 14.8847 34.121 15.16 34.003C15.4747 33.9243 15.809 33.826 16.163 33.708C16.517 33.6293 16.8317 33.531 17.107 33.413C17.4217 33.3343 17.5987 33.295 17.638 33.295H17.697C18.0117 33.0983 18.3263 32.941 18.641 32.823C18.995 32.6657 19.3293 32.5083 19.644 32.351C20.7847 31.8003 21.8467 31.2103 22.83 30.581C23.8527 29.9123 24.6983 29.0863 25.367 28.103C25.6817 27.6703 25.957 27.159 26.193 26.569C26.4683 25.9397 26.606 25.3497 26.606 24.799C26.606 24.0517 26.252 23.442 25.544 22.97C25.4653 22.8913 25.367 22.8127 25.249 22.734C25.131 22.6553 25.072 22.5373 25.072 22.38V22.144C25.6227 22.2227 26.1733 22.4783 26.724 22.911C27.2747 23.3437 27.7467 23.8353 28.14 24.386C28.5727 24.8973 28.8087 25.3693 28.848 25.802C28.9267 26.7067 28.7497 27.6113 28.317 28.516C27.9237 29.3813 27.4123 30.1877 26.783 30.935C26.1537 31.643 25.5047 32.233 24.836 32.705C24.6787 32.823 24.482 32.941 24.246 33.059C24.01 33.177 23.774 33.236 23.538 33.236C23.4987 33.7473 23.1447 34.0817 22.476 34.239C21.8467 34.4357 21.355 34.6323 21.001 34.829C20.7257 34.947 20.4897 35.0847 20.293 35.242C20.0963 35.4387 19.821 35.537 19.467 35.537H19.408V35.596C18.3853 35.8713 17.343 36.1073 16.281 36.304C15.2583 36.5007 14.216 36.599 13.154 36.599ZM37.0435 33.236C36.8861 33.236 36.6305 33.1377 36.2765 32.941C35.9618 32.705 35.8045 32.4887 35.8045 32.292C35.8045 32.174 35.9421 31.9577 36.2175 31.643C36.4928 31.3283 36.7878 31.0137 37.1025 30.699C37.4565 30.3843 37.6925 30.1877 37.8105 30.109C38.3218 30.227 38.5775 30.5023 38.5775 30.935C38.5775 31.407 38.3415 31.9183 37.8695 32.469C37.4368 32.9803 37.1615 33.236 37.0435 33.236ZM84.6224 43.266C84.2684 43.266 83.875 43.2267 83.4424 43.148C83.0097 43.1087 82.6164 43.0103 82.2624 42.853C81.043 42.381 79.7844 41.496 78.4864 40.198C77.2277 38.9 76.0084 37.4053 74.8284 35.714C73.6484 34.062 72.606 32.4297 71.7014 30.817C70.836 29.165 70.187 27.7687 69.7544 26.628C69.6757 26.4313 69.538 26.0773 69.3414 25.566C69.184 25.0547 69.007 24.5237 68.8104 23.973C68.653 23.4617 68.4957 22.9897 68.3384 22.557C68.181 22.1243 68.0434 21.7703 67.9254 21.495C67.178 22.2817 66.47 23.1273 65.8014 24.032C65.1327 24.8973 64.4444 25.7627 63.7364 26.628C63.2644 27.218 62.7727 27.7883 62.2614 28.339C61.7894 28.8897 61.337 29.46 60.9044 30.05C60.511 30.6793 60.1177 31.348 59.7244 32.056C59.3704 32.7247 58.9574 33.3737 58.4854 34.003C58.3674 34.1603 58.2297 34.2783 58.0724 34.357C57.9544 34.475 57.7577 34.534 57.4824 34.534C57.1677 34.534 56.7154 34.357 56.1254 34.003C55.5354 33.6883 55.2207 33.3343 55.1814 32.941C55.1814 32.7837 55.201 32.6853 55.2404 32.646C55.7124 31.702 56.1647 30.758 56.5974 29.814C57.0694 28.87 57.561 27.9653 58.0724 27.1C58.5444 26.2347 59.036 25.4087 59.5474 24.622C60.0587 23.796 60.57 22.97 61.0814 22.144C61.278 21.8293 61.455 21.5147 61.6124 21.2C61.809 20.846 62.0057 20.5313 62.2024 20.256L62.4384 19.902L62.4974 19.548L62.7924 19.607V19.548L62.6744 19.43C62.6744 19.312 62.694 19.253 62.7334 19.253L64.6214 16.303C64.5427 16.1063 64.6017 16.008 64.7984 16.008L64.9754 15.89C65.054 15.654 65.2507 15.2607 65.5654 14.71C65.88 14.1593 66.2144 13.6283 66.5684 13.117C66.9224 12.5663 67.1584 12.1927 67.2764 11.996L67.3354 11.937C67.414 11.8583 67.4534 11.7993 67.4534 11.76C67.4927 11.7207 67.532 11.6813 67.5714 11.642L67.6894 11.111C68.004 10.9143 68.3974 10.4817 68.8694 9.813C69.3807 9.105 69.8724 8.31833 70.3444 7.453C70.8164 6.54833 71.2097 5.70267 71.5244 4.916C71.839 4.09 71.9964 3.48033 71.9964 3.087C71.9964 2.57566 71.8194 2.261 71.4654 2.143C71.1114 1.98567 70.6787 1.907 70.1674 1.907C69.3414 1.907 68.3974 2.084 67.3354 2.438C66.3127 2.75266 65.29 3.146 64.2674 3.618C63.284 4.05067 62.399 4.444 61.6124 4.798C60.039 5.54533 58.5247 6.35167 57.0694 7.217C55.614 8.043 54.198 8.94767 52.8214 9.931C52.4674 10.167 51.8774 10.5997 51.0514 11.229C50.2647 11.819 49.419 12.527 48.5144 13.353C47.6097 14.1397 46.823 14.946 46.1544 15.772C45.525 16.5587 45.2104 17.247 45.2104 17.837C45.2104 18.309 45.5054 18.545 46.0954 18.545C46.4887 18.545 47.0394 18.4467 47.7474 18.25C48.4947 18.0533 49.2224 17.837 49.9304 17.601C50.6777 17.3257 51.2284 17.129 51.5824 17.011C52.133 16.8143 52.605 16.598 52.9984 16.362C53.3917 16.126 53.8834 15.9883 54.4734 15.949V16.067H54.8274L54.4734 16.362C53.8834 16.834 53.0377 17.3453 51.9364 17.896C50.8744 18.4073 49.7534 18.84 48.5734 19.194C47.4327 19.548 46.4297 19.725 45.5644 19.725C44.817 19.725 43.991 19.5087 43.0864 19.076C42.221 18.6433 41.7884 17.9943 41.7884 17.129C41.7884 16.3817 42.2014 15.536 43.0274 14.592C43.8927 13.6087 44.9744 12.586 46.2724 11.524C47.6097 10.462 49.006 9.459 50.4614 8.515C51.9167 7.53167 53.254 6.686 54.4734 5.978C55.732 5.27 56.676 4.77833 57.3054 4.503C58.0527 4.18833 58.859 3.854 59.7244 3.5C60.5897 3.10666 61.3764 2.77233 62.0844 2.497C62.753 2.22166 63.3627 2.00533 63.9134 1.848C64.464 1.69067 65.113 1.53333 65.8604 1.376C66.1357 1.29733 66.411 1.23833 66.6864 1.199C67.001 1.15967 67.296 1.12033 67.5714 1.081C67.768 1.04166 67.9844 1.022 68.2204 1.022C68.4957 0.982664 68.7317 0.943331 68.9284 0.903998H69.3414C69.538 0.903998 69.7347 0.903998 69.9314 0.903998C70.128 0.903998 70.3444 0.943331 70.5804 1.022C71.1704 1.14 71.839 1.376 72.5864 1.73C73.373 2.084 74.0417 2.53633 74.5924 3.087C75.1824 3.59833 75.4774 4.18833 75.4774 4.857C75.4774 5.52567 75.202 6.23367 74.6514 6.981C74.14 7.689 73.6877 8.31833 73.2944 8.869C72.5864 9.813 71.7604 10.8357 70.8164 11.937C69.9117 13.0383 68.9874 14.1593 68.0434 15.3C67.1387 16.4407 66.2734 17.5813 65.4474 18.722C64.6607 19.8627 63.992 20.964 63.4414 22.026L63.2644 22.085C63.225 22.3997 63.107 22.7143 62.9104 23.029C62.7137 23.3043 62.517 23.5797 62.3204 23.855L60.9044 26.51C60.6684 26.982 60.2947 27.5917 59.7834 28.339C59.3114 29.047 59.036 29.637 58.9574 30.109C59.6654 29.2043 60.334 28.2997 60.9634 27.395C61.632 26.451 62.3007 25.5463 62.9694 24.681C63.52 24.0123 64.228 23.2453 65.0934 22.38C65.9587 21.4753 66.529 20.669 66.8044 19.961L66.8634 19.902L66.0374 19.961L65.9784 19.548C66.5684 18.9973 67.0797 18.545 67.5124 18.191C67.9844 17.7977 68.6727 17.601 69.5774 17.601C69.6954 17.4437 69.9117 17.2077 70.2264 16.893C70.541 16.539 70.8754 16.2047 71.2294 15.89C71.5834 15.536 71.8194 15.3 71.9374 15.182C72.7634 14.3953 73.7074 13.471 74.7694 12.409C75.8314 11.3077 76.9917 10.2457 78.2504 9.223C79.509 8.20033 80.866 7.276 82.3214 6.45C83.816 5.58467 85.409 5.034 87.1004 4.798L87.5724 4.68C87.769 4.64066 87.9657 4.621 88.1624 4.621C88.359 4.58167 88.536 4.562 88.6934 4.562C89.0474 4.562 89.4997 4.68 90.0504 4.916C90.6404 5.11267 91.1517 5.40767 91.5844 5.801C92.017 6.19433 92.2334 6.686 92.2334 7.276V7.394C92.2334 7.512 92.2137 7.61033 92.1744 7.689C92.135 7.76767 92.0957 7.84633 92.0564 7.925C92.0564 7.925 92.0367 7.94467 91.9974 7.984C91.9974 8.02333 91.9974 8.14133 91.9974 8.338L91.7614 8.102H91.5844C91.3484 7.43333 91.1124 6.94167 90.8764 6.627C90.6797 6.31233 90.188 6.155 89.4014 6.155C88.89 6.155 88.3787 6.23367 87.8674 6.391C87.356 6.509 86.8644 6.66633 86.3924 6.863C84.347 7.689 82.5377 8.59367 80.9644 9.577C79.391 10.5603 77.916 11.6617 76.5394 12.881C75.202 14.1003 73.8057 15.477 72.3504 17.011C71.957 17.4043 71.6817 17.837 71.5244 18.309C71.367 18.781 71.2884 19.2727 71.2884 19.784C71.2884 20.8067 71.5047 21.8687 71.9374 22.97C72.4094 24.0713 72.842 25.035 73.2354 25.861C73.668 26.7657 74.199 27.8867 74.8284 29.224C75.497 30.5613 76.2444 31.9577 77.0704 33.413C77.8964 34.8683 78.7814 36.2253 79.7254 37.484C80.6694 38.7427 81.6527 39.7653 82.6754 40.552C83.7374 41.3387 84.819 41.732 85.9204 41.732C86.8644 41.732 87.651 41.4567 88.2804 40.906C88.6737 40.5913 89.0277 40.0013 89.3424 39.136C89.657 38.2707 89.9127 37.366 90.1094 36.422C90.306 35.5173 90.3847 34.8093 90.3454 34.298C90.424 34.18 90.5224 34.0817 90.6404 34.003C90.7584 33.9243 90.8764 33.944 90.9944 34.062C91.1124 34.18 91.2107 34.5733 91.2894 35.242C91.3287 35.5173 91.3484 35.832 91.3484 36.186C91.3877 36.5793 91.4074 36.9137 91.4074 37.189C91.4074 37.4643 91.4074 37.72 91.4074 37.956C91.4467 38.2313 91.4664 38.487 91.4664 38.723C91.4664 38.9983 91.427 39.2933 91.3484 39.608C91.309 39.9227 91.191 40.2373 90.9944 40.552C90.7584 41.024 90.2077 41.4567 89.3424 41.85C88.5164 42.2827 87.651 42.617 86.7464 42.853C85.8417 43.1283 85.1337 43.266 84.6224 43.266Z" fill="white"/>
</svg>
